<?xml version="1.0" ?><svg style="enable-background:new 0 0 48 48;" version="1.1" viewBox="0 0 48 48" xml:space="preserve" xmlns="http://www.w3.org/2000/svg" xmlns:xlink="http://www.w3.org/1999/xlink"><g id="Icons"><g><path d="M22.39999,35.86509V36.32c0,0.71,0.58,1.29,1.29,1.29h0.93c0.71,0,1.29-0.58,1.29-1.29v-0.43993" style="fill:#FFCC66;"/><path d="M36.75998,35.78003H11.24002c-0.35004,0-0.60004-0.33002-0.5-0.67004L12.44998,29.25h23.09003    l1.71997,5.85999C37.36002,35.45001,37.11002,35.78003,36.75998,35.78003z" style="fill:#0097D3;"/><path d="M12.44998,29.25c0.4714-1.86041,0.98684-3.71044,1.39399-5.58655    c0.20076-0.92508,0.37522-1.85624,0.50479-2.79409c0.12749-0.92277,0.12761-1.86938,0.32255-2.78069    c0.17715-0.82819,0.41986-1.62416,0.79385-2.38678c0.72808-1.48468,1.84796-2.76857,3.21698-3.69551    c1.54611-1.04685,3.39019-1.61638,5.25786-1.61638c2.6,0,4.96,1.06,6.66999,2.76999    c1.1685,1.1685,1.95078,2.64423,2.40368,4.22483c0.48483,1.69205,0.49984,3.44094,0.81387,5.16177    c0.41544,2.27656,1.13474,4.46739,1.71247,6.7034" style="fill:#F4F4F4;"/><path d="    M12.44998,29.25c0.4714-1.86041,0.98684-3.71044,1.39399-5.58655c0.20076-0.92508,0.37522-1.85624,0.50479-2.79409    c0.12749-0.92277,0.12761-1.86938,0.32255-2.78069c0.17715-0.82819,0.41986-1.62416,0.79385-2.38678    c0.72808-1.48468,1.84796-2.76857,3.21698-3.69551c1.54611-1.04685,3.39019-1.61638,5.25786-1.61638    c2.6,0,4.96,1.06,6.66999,2.76999c1.1685,1.1685,1.95078,2.64423,2.40368,4.22483    c0.48483,1.69205,0.49984,3.44094,0.81387,5.16177c0.41544,2.27656,1.13474,4.46739,1.71247,6.7034" style="fill:none;stroke:#303030;stroke-width:0.7;stroke-linecap:round;stroke-linejoin:round;stroke-miterlimit:10;"/><path d="    M36.75998,35.78003H11.24002c-0.35004,0-0.60004-0.33002-0.5-0.67004L12.44998,29.25h23.09003l1.71997,5.85999    C37.36002,35.45001,37.11002,35.78003,36.75998,35.78003z" style="fill:none;stroke:#303030;stroke-width:0.7;stroke-linecap:round;stroke-linejoin:round;stroke-miterlimit:10;"/><path d="    M22.39999,35.86509V36.32c0,0.71,0.58,1.29,1.29,1.29h0.93c0.71,0,1.29-0.58,1.29-1.29v-0.43993" style="fill:none;stroke:#303030;stroke-width:0.7;stroke-linecap:round;stroke-linejoin:round;stroke-miterlimit:10;"/><path d="    M21.00458,13.27578c-1.74433,0.9948-3.03389,2.64047-3.76966,4.84763" style="fill:none;stroke:#303030;stroke-width:0.7;stroke-linecap:round;stroke-linejoin:round;stroke-miterlimit:10;"/><line style="fill:none;stroke:#303030;stroke-width:0.7;stroke-linecap:round;stroke-linejoin:round;stroke-miterlimit:10;" x1="16.98093" x2="16.84722" y1="20.13664" y2="21.16766"/></g></g></svg>