<?xml version="1.0" ?><svg viewBox="0 0 64 64" xmlns="http://www.w3.org/2000/svg"><title/><g data-name="Layer 31" id="Layer_31"><path d="M29,31v8a3,3,0,0,0,6,0V31Z" style="fill:#ffd3b6"/><path d="M29,36.575a10.8,10.8,0,0,0,6,0V31H29Z" style="fill:#f9b995"/><path d="M55,51V63H9V51A12,12,0,0,1,21,39h8a3,3,0,0,0,6,0h8A12,12,0,0,1,55,51Z" style="fill:#ff938d"/><path d="M24,60A12,12,0,0,1,12,48h0a11.937,11.937,0,0,1,2.152-6.848A11.976,11.976,0,0,0,9,51V63H55V60Z" style="fill:#f27875"/><path d="M9,57h6a2,2,0,0,1,2,2v4a0,0,0,0,1,0,0H9a0,0,0,0,1,0,0V57A0,0,0,0,1,9,57Z" style="fill:#f9b995"/><path d="M47,57h8a0,0,0,0,1,0,0v4a2,2,0,0,1-2,2H47a0,0,0,0,1,0,0V57A0,0,0,0,1,47,57Z" style="fill:#ffd3b6" transform="translate(102 120) rotate(-180)"/><rect height="3" style="fill:#f9b995" width="8" x="47" y="60"/><path d="M21,13H43a0,0,0,0,1,0,0V24A11,11,0,0,1,32,35h0A11,11,0,0,1,21,24V13a0,0,0,0,1,0,0Z" style="fill:#ffd3b6"/><path d="M35,32A11,11,0,0,1,24,21V13H21V24a11,11,0,0,0,20.132,6.132A10.945,10.945,0,0,1,35,32Z" style="fill:#f9b995"/><path d="M33,1H31A12,12,0,0,0,19,13v5h2V17H31.343a4,4,0,0,0,2.829-1.172L36,14l1.828,1.828A4,4,0,0,0,40.657,17H43v1h2V13A12,12,0,0,0,33,1Z" style="fill:#7a838b"/><path d="M43.657,14a4,4,0,0,1-2.829-1.172l-.414-.414a2,2,0,0,0-2.828,0l-.414.414A4,4,0,0,1,34.343,14H26a4,4,0,0,1-4-4h0a11.93,11.93,0,0,1,2.153-6.847A11.98,11.98,0,0,0,19,13v4H31.343a4,4,0,0,0,2.829-1.172L36,14l1.828,1.828A4,4,0,0,0,40.657,17H45V14Z" style="fill:#5d6972"/><path d="M20,17h1a0,0,0,0,1,0,0v6a0,0,0,0,1,0,0H20a3,3,0,0,1-3-3v0A3,3,0,0,1,20,17Z" style="fill:#f9b995"/><path d="M46,17h1a0,0,0,0,1,0,0v6a0,0,0,0,1,0,0H46a3,3,0,0,1-3-3v0A3,3,0,0,1,46,17Z" style="fill:#ffd3b6" transform="translate(90 40) rotate(180)"/><path d="M40,25v6.55a11,11,0,0,1-16,0V25A17,17,0,0,1,40,25Z" style="fill:#98deea"/><path d="M35,32q-.421,0-.834-.031A7.9,7.9,0,0,1,27,24.011v-.23A20.2,20.2,0,0,0,24,25v6.55a11,11,0,0,0,16,0v-.76A10.941,10.941,0,0,1,35,32Z" style="fill:#82d0d8"/><path d="M49.5,39.739a1,1,0,1,0-1,1.731A11.039,11.039,0,0,1,54,51v5H49a3,3,0,0,0-3,3v3H18V59a3,3,0,0,0-3-3H10V51A11.013,11.013,0,0,1,21,40h7.127a4,4,0,0,0,7.746,0H43a11.119,11.119,0,0,1,1.835.152,1,1,0,0,0,.33-1.973A13.242,13.242,0,0,0,43,38H36V35.3a12.013,12.013,0,0,0,4.651-3,1.058,1.058,0,0,0,.119-.131A11.944,11.944,0,0,0,44,24a3.987,3.987,0,0,0,2-7.444V13A13.015,13.015,0,0,0,33,0H31A13.015,13.015,0,0,0,18,13v3.556A3.987,3.987,0,0,0,20,24a11.944,11.944,0,0,0,3.23,8.164,1.058,1.058,0,0,0,.119.131A12.013,12.013,0,0,0,28,35.3V38H21A13.015,13.015,0,0,0,8,51V63a1,1,0,0,0,1,1H55a1,1,0,0,0,1-1V51A13.043,13.043,0,0,0,49.5,39.739ZM25,31.129v-5.5a15.763,15.763,0,0,1,14,0v5.5a9.969,9.969,0,0,1-14,0Zm-2-2.8a9.924,9.924,0,0,1-.978-3.894l.978.978Zm18-2.916.978-.978A9.924,9.924,0,0,1,41,28.33ZM44,22V18a2,2,0,0,1,0,4ZM20,13A11.013,11.013,0,0,1,31,2h2A11.013,11.013,0,0,1,44,13v3H40.657a3,3,0,0,1-1.984-.75,1,1,0,1,0-1.322,1.5A4.992,4.992,0,0,0,40.657,18H42v3.586L39.789,23.8a17.873,17.873,0,0,0-15.578,0L22,21.586V18h9.343a4.968,4.968,0,0,0,3.536-1.464l1.828-1.829a1,1,0,0,0-1.414-1.414l-1.828,1.829A2.983,2.983,0,0,1,31.343,16H20Zm-2,7a2,2,0,0,1,2-2v4A2,2,0,0,1,18,20ZM32,36a11.986,11.986,0,0,0,2-.181V39a2,2,0,0,1-4,0V35.819A11.986,11.986,0,0,0,32,36ZM10,62V58h5a1,1,0,0,1,1,1v3Zm44,0H48V59a1,1,0,0,1,1-1h5Z"/><path d="M27,19a1,1,0,0,0-1,1v1a1,1,0,0,0,2,0V20A1,1,0,0,0,27,19Z"/><path d="M36,20v1a1,1,0,0,0,2,0V20a1,1,0,0,0-2,0Z"/><path d="M36,26.573a.984.984,0,0,1-.273-.039,14.532,14.532,0,0,0-1.87-.4,1,1,0,1,1,.284-1.979,16.267,16.267,0,0,1,2.13.455A1,1,0,0,1,36,26.573Z" style="fill:#fff"/></g></svg>